PathFileType	4	(X/Y/Z)	D:\Documents\Paper\paper_current\paper_step_1_data\data_step_3\marker\30DL\subject_01.tsv
DataRate	CameraRate	NumFrames	NumMarkers	Units	OrigDataRate	OrigDataStartFrame	OrigNumFrames
200	200	5	43	mm	200	2782	200
Frame#	Time	Top.Head			L.Acromium			R.Acromium			Sternum			L.ASIS			R.ASIS			V.Sacral			R.Knee.Lat			R.Knee.Med			L.Knee.Lat			L.Knee.Med			L.Ankle.Lat			L.Toe.Tip			R.Heel			R.Ankle.Med			R.Ankle.Lat			L.Toe.Med			L.Toe.Lat			L.Heel			L.Ankle.Med			L.Shank1			L.Shank2			R.Toe.Tip			R.Toe.Med			R.Toe.Lat			L.Thigh2			L.Thigh1			L.Thigh3			R.Thigh3			R.Thigh1			R.Thigh2			R.Shank1			R.Shank2			R.Shank3			L.Shank3			L.Shank4			R.Shank4			L.Thigh4			R.Thigh4			R.Heel.Lat			R.Heel.Med			L.Heel.Lat			L.Heel.Med		
		X1	Y1	Z1	X2	Y2	Z2	X3	Y3	Z3	X4	Y4	Z4	X5	Y5	Z5	X6	Y6	Z6	X7	Y7	Z7	X8	Y8	Z8	X9	Y9	Z9	X10	Y10	Z10	X11	Y11	Z11	X12	Y12	Z12	X13	Y13	Z13	X14	Y14	Z14	X15	Y15	Z15	X16	Y16	Z16	X17	Y17	Z17	X18	Y18	Z18	X19	Y19	Z19	X20	Y20	Z20	X21	Y21	Z21	X22	Y22	Z22	X23	Y23	Z23	X24	Y24	Z24	X25	Y25	Z25	X26	Y26	Z26	X27	Y27	Z27	X28	Y28	Z28	X29	Y29	Z29	X30	Y30	Z30	X31	Y31	Z31	X32	Y32	Z32	X33	Y33	Z33	X34	Y34	Z34	X35	Y35	Z35	X36	Y36	Z36	X37	Y37	Z37	X38	Y38	Z38	X39	Y39	Z39	X40	Y40	Z40	X41	Y41	Z41	X42	Y42	Z42	X43	Y43	Z43
3380	16.895	515.705	1471.322	35.522	258.538	1297.784	-35.652	322.769	1266.369	281.435	375.644	1187.12	98.048	251.498	814.475	-47.766	301.599	798.341	186.713	119.566	833.962	107.346	324.193	421.378	381.782	327.805	362.833	285.55	200.238	505.21	-314.783	248.082	423.018	-249.392	120.433	212.028	-552.333	226.622	70.18	-652.925	123.884	53.349	527.528	251.205	77.377	483.657	215.218	112.909	558.695	204.547	60.541	-584.476	147.815	116.941	-649.037	29.481	180.071	-490.11	151.196	165.364	-485.515	215.949	447.997	-385.847	199.562	396.441	-449.025	403.88	34.496	607.456	351.396	34.433	547.529	295.609	37.531	641.439	253.54	620.181	-232.266	241.283	683.458	-180.23	178.695	678.242	-185.969	254.485	565.354	323.709	317.65	579.117	331.419	337.536	502.177	354.931	352.596	351.805	443.373	326.229	280.628	485.239	293.582	374.781	443.693	154.113	455.532	-375.667	134.947	396.949	-438.848	267.693	306.78	483.815	187.208	610.583	-241.968	276.823	484.067	346.204	155.689	52.104	585.618	192.783	20.306	500.8	41.157	167.014	-562.439	88.572	121.913	-479.612
3381	16.9	513.591	1471.426	23.509	255.695	1297.236	-45.956	322.331	1267.13	270.468	374.368	1187.478	87.076	250.568	812.974	-55.401	301.388	798.654	179.119	119.134	833.638	99.907	320.396	422.433	377.706	323.924	362.831	281.938	199.644	501.329	-319.981	248.26	419.924	-253.874	119.201	205.708	-553.81	223.01	62.979	-653.403	124.424	54.725	526.797	251.848	78.057	483.46	215.592	113.894	558.061	202.322	54.055	-584.287	144.566	108.155	-649.016	29.236	175.464	-489.601	150.376	160.452	-486.906	215.478	443.599	-390.51	198.919	391.336	-453.062	404.092	34.35	607.692	351.734	34.38	547.599	295.825	37.907	641.345	252.533	617.147	-238.682	240.273	681.469	-188.061	177.458	675.329	-192.72	252.327	566.815	318.091	315.597	580.104	325.534	334.78	503.087	349.8	349.464	353.3	439.899	324.132	282.291	482.582	290.137	375.542	440.257	153.567	451.322	-380.252	134.191	392.105	-442.886	265.302	307.663	481.173	186.118	607.201	-248.069	273.803	485.622	341.517	156.145	53.715	585.122	192.833	20.824	500.866	40.014	160.865	-562.748	88.324	117.399	-478.898
3382	16.905	511.443	1471.136	10.84	252.837	1296.764	-56.386	321.878	1267.951	259.307	373.072	1187.894	75.914	249.579	811.59	-63.235	301.056	799.007	171.348	118.675	833.412	92.223	316.315	423.696	373.554	319.827	362.996	278.296	199.065	497.265	-325.15	248.525	416.729	-258.33	117.438	199.443	-554.845	219.26	57.103	-653.907	125.084	56.442	526.017	252.639	79.02	483.224	216.061	115.141	557.413	200.188	48.549	-584.176	141.037	99.799	-648.784	28.744	170.364	-488.608	149.271	155.557	-488.052	215.012	439.06	-395.131	198.19	386.058	-456.985	404.282	34.215	607.941	352.115	34.366	547.679	296.03	38.322	641.25	251.481	613.991	-245.207	238.704	678.751	-194.889	176.184	672.331	-199.665	249.894	568.582	312.293	313.288	581.134	319.467	331.616	504.225	344.649	346.015	355.136	436.314	321.86	284.026	479.8	286.597	376.996	437.154	153.151	446.968	-384.796	133.664	386.713	-446.449	262.68	308.752	478.497	184.957	603.708	-254.342	269.873	487.577	337.227	156.677	55.192	584.411	192.961	21.639	500.79	38.788	154.385	-562.819	87.979	112.71	-478.001
3383	16.91	509.271	1471.368	-1.48	249.966	1296.357	-66.93	321.413	1268.818	247.957	371.758	1188.347	64.571	248.7	810.175	-71.136	300.639	799.403	163.4	118.194	833.278	84.312	311.992	425.17	369.322	315.542	363.322	274.626	198.537	493.042	-330.267	248.926	413.464	-262.796	114.931	193.383	-555.421	215.394	52.75	-654.593	125.887	58.54	525.179	253.606	80.289	482.955	216.697	116.715	556.779	198.103	44.303	-584.314	137.153	92.162	-648.482	27.846	164.689	-487.132	147.795	150.734	-488.972	214.51	434.431	-399.712	197.273	380.675	-460.784	404.441	34.094	608.207	352.537	34.398	547.769	296.221	38.778	641.152	250.38	610.765	-251.86	237.353	676.196	-202.448	174.89	669.236	-206.777	247.242	570.412	306.17	310.722	582.452	313.206	328.189	505.6	339.35	342.346	357.036	432.795	319.42	286.083	476.984	282.599	378.118	433.739	152.791	442.327	-389.315	133.132	381.477	-450.326	259.881	309.906	475.8	183.783	600.038	-260.646	266.395	489.547	332.17	157.255	57.133	583.769	193.257	22.881	500.495	37.13	147.721	-562.007	87.449	107.874	-476.992
3384	16.915	507.123	1471.654	-13.778	247.097	1296.001	-77.585	320.919	1269.715	236.417	370.427	1188.816	53.053	247.721	808.792	-79.262	300.19	799.858	155.282	117.696	833.234	76.197	307.459	426.85	365.013	311.105	363.801	270.929	198.11	488.714	-335.317	249.51	410.175	-267.317	111.497	187.647	-555.549	211.498	49.876	-655.541	126.86	61.054	524.267	254.778	81.87	482.665	217.602	118.678	556.202	196.028	41.448	-584.802	132.908	85.459	-648.252	26.365	158.396	-485.265	145.882	146.036	-489.684	213.915	429.785	-404.262	196.049	375.279	-464.46	404.563	33.99	608.493	352.999	34.486	547.864	296.4	39.285	641.04	249.234	607.532	-258.654	236.175	673.899	-210.81	173.591	666.038	-214.025	244.231	572.31	299.759	307.889	583.789	306.816	324.493	507.206	334.053	338.411	359.425	429.282	316.824	288.429	474.264	278.4	379.494	430.252	152.495	437.618	-393.791	132.626	376.052	-453.96	256.888	311.279	473.035	182.67	596.277	-267.061	262.671	491.713	326.901	157.928	59.091	582.988	193.803	24.656	499.915	34.191	141.504	-558.98	86.647	102.929	-475.946
